<mxfile host="app.diagrams.net" modified="2024-04-28T02:18:38.346Z" agent="Mozilla/5.0 (Windows NT 10.0; Win64; x64) AppleWebKit/537.36 (KHTML, like Gecko) Chrome/124.0.0.0 Safari/537.36 Edg/124.0.0.0" version="24.3.0" etag="_i0ZajSW3kqLaFaeeBRA" type="github">
  <diagram name="第 1 页" id="env60Y7bR4Y1RrnzOMXb">
    <mxGraphModel>
      <root>
        <mxCell id="0" />
        <mxCell id="1" parent="0" />
      </root>
    </mxGraphModel>
  </diagram>
</mxfile>
